<?xml version="1.0" encoding="utf-8"?>
<!-- Generator: Adobe Illustrator 19.2.0, SVG Export Plug-In . SVG Version: 6.00 Build 0)  -->
<svg version="1.1" id="Layer_1" xmlns="http://www.w3.org/2000/svg" xmlns:xlink="http://www.w3.org/1999/xlink" x="0px" y="0px"
	 viewBox="0 0 1133.9 1133.9" style="enable-background:new 0 0 1133.9 1133.9;" xml:space="preserve">
<style type="text/css">
	.st0{display:none;fill:#FFFFFF;stroke:#FFFFFF;stroke-miterlimit:10;}
	.st1{display:none;}
	.st2{display:inline;fill:#56C5D0;}
	.st3{display:inline;fill:#116187;}
	.st4{display:inline;fill:#204766;}
	.st5{fill:#9588BC;}
	.st6{fill:#495ED6;}
	.st7{fill:none;}
	.st8{font-family:'PTSerif-CaptionItalic';}
	.st9{font-size:45px;}
	.st10{font-family:'HoboStd';}
	.st11{font-size:110px;}
</style>
<rect class="st0" width="1133.9" height="1133.9"/>
<g>
	<g class="st1">
		<path class="st2" d="M116.2,855c-0.1,16.9,7,25.3,21.1,25.4c2.5,0,4.9-0.2,7.2-0.7s5-1.2,8.3-2.4c2.6,5.7,4.3,11.6,5.2,17.7
			c-2.3,0.9-4.5,1.6-6.4,2.1c-2,0.6-3.9,1-5.7,1.2c-1.8,0.3-3.6,0.5-5.4,0.6c-1.8,0.1-3.6,0.2-5.5,0.2c-6.8,0-12.7-1.1-17.8-3.3
			s-9.4-5.3-12.8-9.2s-6-8.6-7.8-14c-1.7-5.4-2.6-11.3-2.6-17.7s1-12.3,2.8-17.7s4.5-10.1,8-14.1s7.8-7,12.9-9.3
			c5.1-2.2,10.9-3.3,17.3-3.3c3.8,0,7.4,0.3,10.8,0.9c3.4,0.6,7.2,1.7,11.4,3.4c-0.2,3.3-0.8,6.4-1.8,9.5s-2.1,5.7-3.3,8
			c-1.6-0.6-3-1-4.3-1.4s-2.6-0.7-3.8-1c-1.2-0.2-2.4-0.4-3.6-0.6c-1.2-0.1-2.5-0.2-3.8-0.2c-6.4,0-11.4,2.1-15,6.4
			C118,839.9,116.2,846.4,116.2,855z"/>
		<path class="st2" d="M203.1,875.2l-17.6-0.1l-0.1,22.7c-2.1,0.3-3.9,0.5-5.6,0.7c-1.7,0.2-3.2,0.2-4.5,0.2c-1.4,0-2.9-0.1-4.5-0.3
			c-1.7-0.2-3.5-0.4-5.5-0.7l0.2-61.5c1.8-0.4,3.5-0.7,5.2-0.8c1.7-0.2,3.4-0.2,5-0.2c1.5,0,3.1,0.1,4.9,0.3
			c1.7,0.2,3.5,0.5,5.1,0.9l-0.1,21l17.7,0.1l0.1-21c1.7-0.4,3.5-0.7,5.2-0.8c1.7-0.2,3.4-0.2,4.9-0.2s3.1,0.1,4.9,0.3
			c1.7,0.2,3.5,0.5,5.1,0.9l-0.2,61.5c-2.1,0.3-3.9,0.5-5.6,0.7c-1.7,0.2-3.2,0.2-4.5,0.2c-1.4,0-2.9-0.1-4.5-0.3
			c-1.7-0.2-3.5-0.4-5.5-0.7L203.1,875.2z"/>
		<path class="st2" d="M250.9,873.7c0.9,3.3,2.4,5.6,4.6,6.9c2.2,1.4,5.1,2,8.6,2.1c2.3,0,4.9-0.3,7.8-0.8s5.7-1.4,8.5-2.5
			c1.1,2.1,2.1,4.5,2.9,7.4s1.3,5.8,1.3,9c-7.1,2.6-14.3,3.9-21.7,3.8c-5.7,0-10.6-0.8-14.7-2.4c-4.1-1.6-7.4-3.8-10-6.7
			c-2.6-2.8-4.5-6.2-5.7-10.1c-1.2-3.9-1.8-8.2-1.8-12.8c0-4.5,0.7-8.8,2-12.8s3.2-7.4,5.8-10.4c2.6-2.9,5.7-5.2,9.6-6.9
			c3.8-1.7,8.3-2.5,13.4-2.5c4.2,0,8,0.7,11.3,2.2c3.3,1.4,6.1,3.4,8.4,5.9s4,5.5,5.3,9.1c1.2,3.5,1.8,7.4,1.8,11.5
			c0,2.1-0.1,4.1-0.3,5.8c-0.2,1.7-0.4,3.1-0.6,4.2H250.9z M260.5,850.3c-2.5,0-4.7,0.8-6.6,2.4c-1.8,1.6-2.9,4-3.2,7.4l19.1,0.1
			c-0.1-2.8-1-5.1-2.5-7C265.7,851.2,263.5,850.3,260.5,850.3z"/>
		<path class="st2" d="M314.9,879.9l-0.1,18.2c-1.7,0.4-3.4,0.6-5.1,0.8c-1.8,0.1-3.4,0.2-4.9,0.2c-1.6,0-3.2-0.1-4.9-0.2
			c-1.7-0.1-3.4-0.4-5.2-0.8l0.2-61.4l45.6,0.2c0.4,1.6,0.6,3.1,0.8,4.4c0.1,1.4,0.2,2.7,0.2,3.9c0,1.3-0.1,2.6-0.2,4
			s-0.4,2.9-0.8,4.5l-25.4-0.1v9.5l20.5,0.1c0.4,1.6,0.6,3.1,0.8,4.4c0.1,1.4,0.2,2.7,0.2,3.9c0,1.3-0.1,2.6-0.2,4s-0.4,2.9-0.8,4.5
			L314.9,879.9z"/>
		<path class="st2" d="M364.1,844.9c-1.8,0.4-3.4,0.6-5,0.8c-1.5,0.1-3,0.2-4.5,0.2c-1.7,0-3.4-0.1-5.2-0.3
			c-1.8-0.2-3.3-0.4-4.5-0.7l8.4-31.8c1.8-0.4,3.4-0.6,5-0.8c1.5-0.1,3-0.2,4.2-0.2c1.3,0,3,0.1,4.8,0.2c1.9,0.1,3.8,0.4,5.9,0.8
			L364.1,844.9z"/>
		<path class="st2" d="M411.2,860.2c2.4,0.6,4.5,1.4,6.5,2.3c1.9,0.9,3.6,2.1,5,3.5s2.5,3.2,3.3,5.3s1.2,4.6,1.2,7.5
			c0,3-0.6,5.8-1.9,8.5c-1.2,2.6-3.1,4.9-5.5,6.8c-2.4,1.9-5.4,3.4-9,4.5c-3.5,1.1-7.6,1.6-12.2,1.6c-3.8,0-7.4-0.3-10.6-0.9
			c-3.3-0.6-6.7-1.5-10.4-2.9c0.4-5.4,1.9-10.9,4.5-16.4c2.5,1.2,5.2,2.1,8,2.7c2.8,0.6,5.6,0.9,8.3,0.9c1,0,1.9,0,3-0.1
			c1-0.1,1.9-0.2,2.7-0.5c0.8-0.3,1.5-0.7,2-1.1c0.5-0.5,0.8-1.1,0.8-1.9c0-1-0.5-1.8-1.5-2.3s-2.2-1-3.6-1.4l-8.1-2.3
			c-4.2-1.2-7.7-3.2-10.5-6.1c-2.8-2.9-4.1-6.8-4.1-11.7c0-3.1,0.7-5.9,1.9-8.5c1.3-2.5,3.1-4.7,5.4-6.5s5-3.1,8.2-4.1
			c3.1-0.9,6.6-1.4,10.4-1.4c3,0,6.3,0.3,9.9,1s7.1,1.6,10.6,2.8c-0.2,2.5-0.7,5.3-1.6,8.2s-1.9,5.5-3,7.7c-2.1-0.9-4.7-1.7-7.7-2.4
			s-5.8-1.1-8.3-1.1c-3.7,0-5.6,1-5.6,3.1c0,0.9,0.4,1.6,1.3,2c0.9,0.5,1.9,0.9,3,1.2L411.2,860.2z"/>
		<path class="st3" d="M458.5,813.5c3.9-0.4,7.5-0.7,10.8-1.1c3.3-0.3,6.8-0.5,10.4-0.5c4.4,0,8.7,0.5,13.1,1.3
			c4.4,0.9,8.3,2.3,11.7,4.4c3.4,2.1,6.2,4.9,8.3,8.5s3.2,8.1,3.2,13.6c0,2.9-0.4,5.6-1,7.9c-0.7,2.3-1.6,4.4-2.6,6.2
			c-1.1,1.8-2.3,3.4-3.6,4.8c-1.3,1.3-2.6,2.5-3.9,3.4l18.5,36.8c-1.9,0.3-4,0.5-6.3,0.7c-2.3,0.1-4.3,0.2-6.1,0.2
			c-1.6,0-3.4-0.1-5.5-0.3s-4-0.4-5.5-0.7l-17-39l1.1-0.6c1-0.5,2-1.3,3.2-2.4c1.2-1.1,2.2-2.4,3.2-4c1-1.5,1.8-3.3,2.5-5.2
			s1-3.9,1-6c0-4-1.1-6.9-3.3-8.7c-2.2-1.8-5-2.8-8.2-2.8c-0.8,0-1.5,0-2,0.1c-0.6,0.1-0.9,0.2-1.1,0.2l-0.3,68.2
			c-4.2,0.7-7.7,1-10.4,1c-2.9,0-6.5-0.4-10.6-1.1L458.5,813.5z"/>
		<path class="st3" d="M542.6,874.9c0.9,3.3,2.4,5.6,4.6,6.9c2.2,1.4,5.1,2,8.6,2.1c2.3,0,4.9-0.3,7.8-0.8c2.9-0.5,5.7-1.4,8.5-2.5
			c1.1,2.1,2.1,4.5,2.9,7.4c0.8,2.9,1.3,5.8,1.3,8.9c-7.1,2.6-14.3,3.9-21.7,3.9c-5.7,0-10.6-0.8-14.7-2.4c-4.1-1.6-7.4-3.8-10-6.7
			c-2.6-2.8-4.5-6.2-5.7-10.1c-1.2-3.9-1.8-8.2-1.8-12.8c0-4.5,0.7-8.8,2-12.8s3.2-7.4,5.8-10.4c2.6-2.9,5.7-5.2,9.6-6.9
			c3.8-1.7,8.3-2.5,13.4-2.5c4.2,0,8,0.7,11.3,2.2c3.3,1.4,6.1,3.4,8.4,5.9c2.3,2.5,4.1,5.5,5.3,9.1c1.2,3.5,1.8,7.4,1.8,11.5
			c0,2.1-0.1,4.1-0.3,5.8s-0.4,3.1-0.6,4.2L542.6,874.9z M552.2,851.4c-2.5,0-4.7,0.8-6.6,2.4c-1.8,1.6-2.9,4-3.2,7.4l19.1,0.1
			c-0.1-2.8-1-5.1-2.5-7C557.4,852.4,555.2,851.4,552.2,851.4z"/>
		<path class="st3" d="M616.2,860.9c2.4,0.6,4.5,1.4,6.5,2.3c1.9,0.9,3.6,2.1,5,3.5s2.5,3.2,3.3,5.3s1.2,4.6,1.2,7.5
			c0,3-0.6,5.8-1.9,8.5c-1.2,2.6-3.1,4.9-5.5,6.8c-2.4,1.9-5.4,3.4-9,4.5c-3.5,1.1-7.6,1.6-12.2,1.6c-3.8,0-7.4-0.3-10.6-0.9
			c-3.3-0.6-6.7-1.5-10.4-2.9c0.4-5.4,1.9-10.9,4.5-16.4c2.5,1.2,5.2,2.1,8,2.7c2.8,0.6,5.6,0.9,8.3,0.9c1,0,1.9,0,3-0.1
			c1-0.1,1.9-0.2,2.7-0.5s1.5-0.7,2-1.1c0.5-0.5,0.8-1.1,0.8-1.9c0-1-0.5-1.8-1.5-2.3s-2.2-1-3.6-1.4l-8.1-2.3
			c-4.2-1.2-7.7-3.2-10.5-6.1c-2.8-2.9-4.1-6.8-4.1-11.7c0-3.1,0.7-5.9,1.9-8.5c1.3-2.5,3.1-4.7,5.4-6.5c2.3-1.8,5-3.1,8.2-4.1
			c3.1-0.9,6.6-1.4,10.4-1.4c3,0,6.3,0.3,9.9,1c3.6,0.7,7.1,1.6,10.6,2.8c-0.2,2.5-0.7,5.3-1.6,8.2c-0.9,2.9-1.9,5.5-3,7.7
			c-2.1-0.9-4.7-1.7-7.7-2.4s-5.8-1.1-8.3-1.1c-3.7,0-5.6,1-5.6,3.1c0,0.9,0.4,1.6,1.3,2c0.9,0.5,1.9,0.9,3,1.2L616.2,860.9z"/>
		<path class="st3" d="M652.2,854.9l-17.7-0.1c-0.4-1.6-0.6-3.1-0.8-4.5c-0.1-1.4-0.2-2.7-0.2-4s0.1-2.6,0.2-3.9
			c0.1-1.4,0.4-2.8,0.8-4.4l55.5,0.2c0.4,1.6,0.6,3.1,0.8,4.4c0.1,1.4,0.2,2.7,0.2,3.9c0,1.3-0.1,2.6-0.2,4
			c-0.1,1.4-0.4,2.9-0.8,4.5l-17.6-0.1l-0.2,44.7c-2.1,0.3-3.9,0.5-5.6,0.7c-1.7,0.2-3.2,0.2-4.5,0.2c-1.4,0-2.9-0.1-4.5-0.3
			c-1.7-0.2-3.5-0.4-5.5-0.7L652.2,854.9z"/>
		<path class="st3" d="M692.6,879.7c0-3.9,0.9-7.1,2.5-9.6c1.7-2.5,3.8-4.6,6.5-6.1c2.6-1.5,5.5-2.5,8.7-3.1s6.3-0.9,9.3-0.9h7.3
			c-0.1-1.4-0.5-2.6-1.2-3.6s-1.6-1.7-2.7-2.2c-1.1-0.5-2.3-0.9-3.7-1.1c-1.3-0.2-2.7-0.3-4.2-0.3c-1.9,0-4.1,0.2-6.7,0.6
			c-2.5,0.4-5.2,1.1-7.9,2.1c-0.7-1.4-1.3-2.6-1.8-3.7c-0.5-1.1-0.9-2.2-1.2-3.4s-0.5-2.3-0.6-3.6c-0.1-1.2-0.2-2.6-0.2-4.2
			c3.8-1.3,7.6-2.2,11.4-2.8c3.8-0.6,7.2-0.9,10.2-0.9c4.1,0,7.9,0.5,11.2,1.5s6.2,2.5,8.5,4.6s4.1,4.7,5.4,8
			c1.3,3.2,1.9,7.1,1.9,11.5l-0.1,34.9c-3,0.9-6.7,1.7-11,2.6c-4.3,0.9-8.8,1.3-13.6,1.3c-4.1,0-7.9-0.4-11.4-1.2s-6.4-2-8.9-3.7
			s-4.4-3.9-5.8-6.6C693.3,887.1,692.6,883.7,692.6,879.7z M720.7,886.5c0.7,0,1.7-0.1,3.1-0.2c1.4-0.2,2.3-0.3,3-0.5l0.1-13.1h-6.8
			c-2.8,0-5.1,0.6-7,1.8s-2.9,2.9-2.9,5c0,1.6,0.3,2.8,1.1,3.8c0.7,0.9,1.6,1.6,2.7,2.1c1.1,0.5,2.2,0.8,3.5,1
			C718.6,886.4,719.7,886.5,720.7,886.5z"/>
		<path class="st3" d="M809.1,897.5c-1.3,0.5-3,0.9-4.8,1.4c-1.9,0.5-3.9,0.9-6,1.3c-2.1,0.4-4.3,0.8-6.5,1s-4.4,0.3-6.6,0.3
			c-4.1,0-7.9-0.3-11.7-1c-3.7-0.7-7-2-9.8-3.9c-2.8-2-5-4.8-6.7-8.5s-2.5-8.7-2.4-14.9l0.1-34.8c1.7-0.4,3.5-0.7,5.2-0.8
			c1.7-0.2,3.4-0.2,4.9-0.2s3.1,0.1,4.9,0.3c1.7,0.2,3.5,0.5,5.1,0.9l-0.1,33.2c0,4.8,0.8,8,2.4,9.8c1.6,1.8,4,2.6,7.3,2.7
			c1.4,0,2.4,0,3.1-0.1c0.7-0.1,1.2-0.2,1.5-0.2l0.2-45.2c1.8-0.4,3.5-0.7,5.2-0.8c1.7-0.2,3.4-0.2,4.9-0.2s3.1,0.1,4.9,0.3
			c1.7,0.2,3.5,0.5,5.1,0.9L809.1,897.5z"/>
		<path class="st3" d="M819.7,839c3.7-0.5,7.6-0.8,11.6-1.1s7.8-0.4,11.4-0.4c9.6,0,16.8,1.9,21.6,5.5s7.2,8.7,7.2,15.2
			c0,2.5-0.3,4.6-0.9,6.4c-0.6,1.8-1.2,3.4-2,4.7s-1.6,2.4-2.5,3.2s-1.6,1.4-2.2,1.9l13.5,26.1c-1.6,0.3-3.4,0.5-5.3,0.7
			c-2,0.2-3.8,0.2-5.7,0.2c-2.2,0-4.4-0.1-6.4-0.3c-2.1-0.2-3.8-0.4-5.1-0.7l-13.1-28.2l1.7-0.9c2.8-1.6,4.7-3.3,5.7-5
			c1-1.8,1.6-3.7,1.6-5.8s-0.6-3.8-1.8-5.1s-3.2-2-5.9-2c-1.5,0-2.7,0.1-3.5,0.2l-0.2,46.9c-2.1,0.4-3.9,0.6-5.6,0.8
			c-1.7,0.1-3.1,0.2-4.4,0.2c-1.3,0-2.8-0.1-4.4-0.2c-1.6-0.1-3.4-0.4-5.5-0.8L819.7,839z"/>
		<path class="st3" d="M878.3,880.4c0-3.9,0.9-7.1,2.5-9.6c1.7-2.5,3.8-4.6,6.5-6.1c2.6-1.5,5.5-2.5,8.7-3.1s6.3-0.9,9.3-0.9h7.3
			c-0.1-1.4-0.5-2.6-1.2-3.6s-1.6-1.7-2.7-2.2c-1.1-0.5-2.3-0.9-3.7-1.1c-1.4-0.2-2.7-0.3-4.2-0.3c-1.9,0-4.1,0.2-6.7,0.6
			c-2.6,0.4-5.2,1.1-7.9,2.1c-0.7-1.4-1.3-2.6-1.8-3.7c-0.5-1.1-0.9-2.2-1.2-3.4s-0.5-2.3-0.6-3.6c-0.1-1.2-0.2-2.6-0.2-4.2
			c3.8-1.3,7.6-2.2,11.4-2.8c3.8-0.6,7.2-0.9,10.2-0.9c4.1,0,7.9,0.5,11.2,1.5s6.2,2.5,8.5,4.6s4.1,4.7,5.4,8
			c1.3,3.2,1.9,7.1,1.9,11.5l-0.1,34.9c-3,0.9-6.7,1.7-11,2.6c-4.3,0.9-8.8,1.3-13.6,1.3c-4.1,0-7.9-0.4-11.4-1.2s-6.4-2-8.9-3.7
			s-4.4-3.9-5.8-6.6C879,887.8,878.3,884.4,878.3,880.4z M906.4,887.2c0.7,0,1.7-0.1,3.1-0.2c1.4-0.2,2.3-0.3,3-0.5v-13.1h-6.8
			c-2.8,0-5.1,0.6-7,1.8s-2.9,2.9-2.9,5c0,1.6,0.3,2.8,1.1,3.8c0.7,0.9,1.6,1.6,2.7,2.1c1.1,0.5,2.2,0.8,3.5,1
			C904.3,887.1,905.4,887.2,906.4,887.2z"/>
		<path class="st3" d="M966,838.1c3.5,0,7,0.3,10.5,0.9c3.5,0.6,6.7,1.9,9.5,3.8c2.8,1.9,5.1,4.7,6.9,8.3c1.8,3.6,2.6,8.3,2.6,14.2
			l-0.1,35.7c-2.1,0.4-3.9,0.6-5.6,0.8c-1.7,0.1-3.1,0.2-4.4,0.2c-1.4,0-2.9-0.1-4.5-0.2c-1.7-0.1-3.5-0.4-5.6-0.8l0.1-33.5
			c0-4.2-0.8-7.2-2.3-9.1c-1.6-1.8-4-2.8-7.3-2.8c-0.9,0-1.8,0.1-2.8,0.2c-1,0.2-1.6,0.3-1.9,0.5l-0.2,44.6
			c-2.1,0.4-3.9,0.6-5.6,0.8c-1.7,0.1-3.1,0.2-4.4,0.2c-1.4,0-2.9-0.1-4.5-0.2c-1.7-0.1-3.5-0.4-5.6-0.8l0.2-58.6
			c2.8-0.9,6.2-1.9,10.1-2.8C955.1,838.5,960,838.1,966,838.1z"/>
		<path class="st3" d="M1017.8,856.3l-17.7-0.1c-0.4-1.6-0.6-3.1-0.8-4.5c-0.1-1.4-0.2-2.7-0.2-4s0.1-2.6,0.2-3.9
			c0.1-1.3,0.4-2.8,0.8-4.4l55.5,0.2c0.4,1.6,0.6,3.1,0.8,4.4c0.1,1.4,0.2,2.7,0.2,3.9c0,1.3-0.1,2.6-0.2,4s-0.4,2.9-0.8,4.5
			l-17.7-0.1l-0.2,44.7c-2.1,0.3-3.9,0.5-5.6,0.7s-3.2,0.2-4.5,0.2c-1.4,0-2.9-0.1-4.5-0.3c-1.7-0.2-3.5-0.4-5.5-0.7L1017.8,856.3z"
			/>
	</g>
	<g class="st1">
		<path class="st4" d="M363.6,925.4c0.9-0.2,1.9-0.3,2.9-0.4c1-0.1,2.1-0.1,3.1-0.1c0.7,0,1.6,0.1,2.7,0.2c1.1,0.1,2,0.2,2.8,0.3
			l-13.8,28l-0.1,15.6c-2.2,0.4-4,0.5-5.4,0.5c-1.5,0-3.3-0.2-5.4-0.6l0.1-15.6c-1.1-2.2-2.2-4.5-3.3-6.9c-1.2-2.4-2.3-4.8-3.5-7.2
			s-2.3-4.8-3.4-7.2s-2.2-4.7-3.3-6.9c0.7-0.1,1.6-0.2,2.8-0.3c1.2-0.1,2.3-0.1,3.4-0.1c0.9,0,1.8,0.1,2.8,0.2
			c1,0.1,1.9,0.2,2.7,0.3l7.5,17.1L363.6,925.4z"/>
		<path class="st4" d="M368.7,953.6c0-2.5,0.4-4.8,1-6.8c0.7-2.1,1.7-3.8,3-5.3s3-2.6,4.9-3.4c2-0.8,4.2-1.2,6.8-1.2
			c2.6,0,4.9,0.4,6.9,1.2s3.6,1.9,4.9,3.4s2.3,3.2,3,5.3s1,4.3,1,6.8c0,2.4-0.4,4.7-1,6.7c-0.7,2-1.7,3.8-3,5.2s-3,2.5-4.9,3.3
			c-2,0.8-4.3,1.1-6.9,1.1s-4.8-0.4-6.8-1.2s-3.6-1.9-4.9-3.4s-2.3-3.2-3-5.2C369,958.3,368.7,956.1,368.7,953.6z M389.7,953.7
			c0-2.6-0.4-4.6-1.3-6s-2.2-2.1-4-2.1s-3.1,0.7-4,2.1c-0.9,1.4-1.3,3.4-1.3,6s0.4,4.6,1.3,5.9c0.9,1.4,2.2,2.1,4,2.1s3.1-0.7,4-2.1
			C389.3,958.2,389.7,956.3,389.7,953.7z"/>
		<path class="st4" d="M431.7,968.1c-0.7,0.2-1.5,0.5-2.5,0.7s-2,0.5-3.1,0.7s-2.2,0.4-3.3,0.5c-1.1,0.1-2.3,0.2-3.4,0.2
			c-2.1,0-4.1-0.2-6-0.5s-3.6-1-5-2s-2.6-2.5-3.4-4.4s-1.3-4.4-1.3-7.6l0.1-17.9c0.9-0.2,1.8-0.3,2.7-0.4c0.9-0.1,1.7-0.1,2.5-0.1
			s1.6,0,2.5,0.1s1.8,0.2,2.6,0.4l-0.1,17c0,2.4,0.4,4.1,1.2,5c0.8,0.9,2.1,1.4,3.7,1.4c0.7,0,1.2,0,1.6-0.1c0.4,0,0.6-0.1,0.8-0.1
			l0.1-23.2c0.9-0.2,1.8-0.3,2.7-0.4c0.9-0.1,1.7-0.1,2.5-0.1s1.6,0,2.5,0.1s1.8,0.2,2.6,0.4L431.7,968.1z"/>
		<path class="st4" d="M437.1,938c1.9-0.2,3.9-0.4,6-0.6c2.1-0.2,4-0.2,5.8-0.2c4.9,0,8.6,1,11.1,2.8c2.5,1.9,3.7,4.5,3.7,7.8
			c0,1.3-0.2,2.4-0.4,3.3c-0.3,0.9-0.6,1.7-1,2.4s-0.8,1.2-1.3,1.6c-0.5,0.4-0.8,0.7-1.1,1l6.9,13.4c-0.8,0.2-1.7,0.3-2.7,0.4
			c-1,0.1-2,0.1-2.9,0.1c-1.1,0-2.2,0-3.3-0.1c-1.1-0.1-1.9-0.2-2.6-0.4l-6.7-14.5l0.9-0.5c1.4-0.8,2.4-1.7,2.9-2.6
			c0.5-0.9,0.8-1.9,0.8-3s-0.3-1.9-0.9-2.6c-0.6-0.7-1.6-1-3-1c-0.8,0-1.4,0-1.8,0.1l-0.1,24.1c-1.1,0.2-2,0.3-2.9,0.4
			c-0.9,0.1-1.6,0.1-2.3,0.1c-0.7,0-1.4,0-2.3-0.1c-0.8-0.1-1.8-0.2-2.8-0.4L437.1,938z"/>
		<path class="st4" d="M498.5,942.9c1.7,0.7,3.2,1.4,4.6,2.1c1.4,0.7,2.5,1.6,3.5,2.6s1.7,2.2,2.2,3.6c0.5,1.4,0.8,3.1,0.8,5.1
			c0,2.2-0.4,4.1-1.2,5.8c-0.8,1.7-1.9,3.2-3.4,4.5c-1.5,1.2-3.3,2.2-5.4,2.9s-4.6,1-7.4,1c-2.5,0-4.8-0.2-6.7-0.6
			c-1.9-0.4-4-1.1-6.3-1.9c0.2-1.4,0.5-2.9,0.9-4.6c0.4-1.6,0.9-3.3,1.5-4.9c3.7,1.6,7,2.5,9.8,2.5c2.1,0,3.7-0.3,4.9-0.9
			c1.2-0.6,1.8-1.7,1.8-3.3c0-0.7-0.1-1.2-0.4-1.7c-0.2-0.5-0.6-0.9-1-1.2s-0.9-0.6-1.4-0.8s-1-0.4-1.6-0.6l-3.4-1.3
			c-1.5-0.5-2.8-1.2-4-1.9s-2.2-1.6-3.1-2.6s-1.5-2.2-2-3.5s-0.7-2.8-0.7-4.6c0-2.2,0.4-4.1,1.1-5.8s1.8-3.1,3.1-4.2
			c1.3-1.2,2.9-2,4.8-2.6s4-0.9,6.3-0.9c2.1,0,4.1,0.2,6,0.6c1.9,0.4,4,1,6.2,1.8c-0.2,1.3-0.5,2.7-0.9,4.3s-1,3-1.6,4.4
			c-1.1-0.5-2.3-0.9-3.7-1.4c-1.4-0.5-3.2-0.7-5.3-0.8c-0.7,0-1.3,0.1-1.9,0.2c-0.6,0.1-1.1,0.3-1.6,0.6s-0.9,0.6-1.1,1.1
			c-0.3,0.5-0.4,1-0.4,1.7c0,1.2,0.4,2.1,1.2,2.6c0.8,0.6,1.7,1.1,2.8,1.5L498.5,942.9z"/>
		<path class="st4" d="M524.4,961.3H536c0.2,0.8,0.3,1.6,0.4,2.3c0.1,0.7,0.1,1.4,0.1,2c0,0.7,0,1.3-0.1,2s-0.2,1.5-0.4,2.3
			l-21.9-0.1l0.2-31.7c0.9-0.2,1.8-0.3,2.7-0.4c0.9-0.1,1.7-0.1,2.5-0.1s1.6,0,2.5,0.1s1.8,0.2,2.6,0.4L524.4,961.3z"/>
		<path class="st4" d="M537.2,954.3c0-2.5,0.4-4.8,1-6.8c0.7-2.1,1.7-3.8,3-5.3s3-2.6,4.9-3.4c2-0.8,4.2-1.2,6.8-1.2
			s4.9,0.4,6.9,1.2s3.6,1.9,4.9,3.4c1.3,1.5,2.3,3.2,3,5.3s1,4.3,1,6.8c0,2.4-0.4,4.7-1,6.7c-0.7,2-1.7,3.7-3,5.2
			c-1.3,1.4-3,2.5-4.9,3.3c-2,0.8-4.3,1.1-6.9,1.1c-2.6,0-4.8-0.4-6.8-1.2s-3.6-1.9-4.9-3.4c-1.3-1.5-2.3-3.2-3-5.2
			C537.5,959,537.2,956.7,537.2,954.3z M558.2,954.3c0-2.6-0.4-4.6-1.3-6c-0.9-1.4-2.2-2.1-4-2.1s-3.1,0.7-4,2.1
			c-0.9,1.4-1.3,3.4-1.3,6s0.4,4.6,1.3,5.9c0.9,1.4,2.2,2.1,4,2.1s3.1-0.7,4-2.1C557.8,958.9,558.2,956.9,558.2,954.3z"/>
		<path class="st4" d="M587.2,970.9c-2.9,0-5.4-0.5-7.5-1.3c-2.1-0.9-3.7-2.1-5-3.6s-2.2-3.3-2.8-5.3s-0.9-4.2-0.9-6.6
			c0-2.2,0.4-4.4,1.1-6.4c0.7-2,1.8-3.7,3.2-5.2s3.2-2.6,5.2-3.5c2.1-0.8,4.5-1.3,7.2-1.3c1.4,0,3,0.2,4.7,0.5s3.6,0.9,5.6,1.7
			c0,0.7-0.1,1.3-0.3,2c-0.1,0.6-0.3,1.2-0.5,1.9c-0.2,0.6-0.4,1.3-0.7,2s-0.6,1.5-1,2.4c-1.4-0.6-2.7-1-3.8-1.3
			c-1.2-0.3-2.2-0.4-3.1-0.4c-1.3,0-2.5,0.2-3.4,0.6c-0.9,0.4-1.7,1-2.3,1.6c-0.6,0.7-1,1.5-1.3,2.4s-0.4,1.9-0.4,2.8
			c0,2.7,0.6,4.7,1.8,6s2.9,1.9,5.2,1.9h1.1v-9c1-0.2,1.9-0.3,2.7-0.4c0.8-0.1,1.6-0.1,2.3-0.1c1.4,0,3.1,0.2,5.1,0.6l-0.1,15.6
			c-1.2,0.4-2.8,0.9-5,1.5C592.5,970.6,590,970.9,587.2,970.9z"/>
		<path class="st4" d="M602.2,959.8c0-2,0.4-3.7,1.3-5c0.9-1.3,2-2.3,3.3-3.1s2.8-1.3,4.5-1.6c1.6-0.3,3.2-0.4,4.8-0.4h3.7
			c0-0.7-0.2-1.3-0.6-1.8c-0.4-0.5-0.8-0.9-1.4-1.1c-0.6-0.3-1.2-0.5-1.9-0.6s-1.4-0.2-2.1-0.2c-1,0-2.1,0.1-3.4,0.3
			c-1.3,0.2-2.7,0.6-4,1.1c-0.4-0.7-0.7-1.3-0.9-1.9c-0.3-0.6-0.5-1.2-0.6-1.7c-0.1-0.6-0.2-1.2-0.3-1.8s-0.1-1.4-0.1-2.2
			c2-0.6,3.9-1.1,5.9-1.4c1.9-0.3,3.7-0.5,5.2-0.5c2.1,0,4,0.3,5.8,0.8c1.7,0.5,3.2,1.3,4.4,2.4c1.2,1.1,2.1,2.4,2.8,4.1
			c0.6,1.7,1,3.6,1,5.9l-0.1,17.9c-1.6,0.4-3.4,0.9-5.6,1.3c-2.2,0.4-4.5,0.7-7,0.6c-2.1,0-4.1-0.2-5.8-0.6c-1.8-0.4-3.3-1-4.6-1.9
			s-2.3-2-3-3.4C602.5,963.6,602.2,961.9,602.2,959.8z M616.6,963.3c0.4,0,0.9,0,1.6-0.1c0.7-0.1,1.2-0.2,1.5-0.2v-6.7h-3.5
			c-1.4,0-2.6,0.3-3.6,0.9c-1,0.6-1.5,1.5-1.5,2.6c0,0.8,0.2,1.5,0.5,1.9c0.4,0.5,0.8,0.8,1.4,1.1c0.5,0.2,1.1,0.4,1.8,0.5
			C615.5,963.3,616.1,963.3,616.6,963.3z"/>
		<path class="st4" d="M647.2,938.1c1.8,0,3.6,0.2,5.4,0.5c1.8,0.3,3.4,1,4.9,1.9c1.4,1,2.6,2.4,3.5,4.2s1.4,4.3,1.3,7.3l-0.1,18.3
			c-1.1,0.2-2,0.3-2.9,0.4c-0.9,0.1-1.6,0.1-2.3,0.1s-1.5,0-2.3-0.1c-0.9-0.1-1.8-0.2-2.9-0.4l0.1-17.2c0-2.2-0.4-3.7-1.2-4.7
			c-0.8-0.9-2.1-1.4-3.7-1.4c-0.4,0-0.9,0-1.4,0.1s-0.8,0.2-0.9,0.2l-0.1,22.9c-1.1,0.2-2,0.3-2.9,0.4c-0.9,0.1-1.6,0.1-2.3,0.1
			s-1.5,0-2.3-0.1c-0.9-0.1-1.8-0.2-2.9-0.4l0.1-30.1c1.4-0.5,3.2-1,5.2-1.4C641.6,938.3,644.1,938.1,647.2,938.1z"/>
		<path class="st4" d="M706.6,971c-1.5,0-3.3-0.2-5.4-0.6l0.1-17.9h-10.8l-0.1,17.9c-2.2,0.4-4,0.5-5.4,0.5c-1.5,0-3.3-0.2-5.4-0.6
			l0.2-43.7c1.1-0.2,2.1-0.3,3-0.4c0.9-0.1,1.7-0.1,2.4-0.1s1.6,0,2.5,0.1s1.9,0.2,3,0.4l-0.1,16.2h10.8l0.1-16.2
			c1.1-0.2,2.1-0.3,3-0.4c0.9-0.1,1.7-0.1,2.4-0.1s1.6,0,2.5,0.1s1.9,0.2,3,0.4l-0.2,43.7C709.8,970.8,708,971,706.6,971z"/>
		<path class="st4" d="M726.5,958.1c0.4,1.7,1.2,2.9,2.3,3.6c1.1,0.7,2.6,1.1,4.4,1.1c1.2,0,2.5-0.1,4-0.4c1.5-0.3,2.9-0.7,4.4-1.3
			c0.6,1.1,1.1,2.3,1.5,3.8s0.7,3,0.7,4.6c-3.6,1.3-7.4,2-11.2,2c-2.9,0-5.5-0.4-7.6-1.3c-2.1-0.8-3.8-2-5.1-3.4
			c-1.3-1.5-2.3-3.2-2.9-5.2c-0.6-2-0.9-4.2-0.9-6.6c0-2.3,0.3-4.5,1-6.5s1.6-3.8,3-5.3c1.3-1.5,3-2.7,4.9-3.6
			c2-0.9,4.2-1.3,6.9-1.3c2.2,0,4.1,0.4,5.8,1.1c1.7,0.7,3.1,1.8,4.3,3c1.2,1.3,2.1,2.8,2.7,4.7c0.6,1.8,0.9,3.8,0.9,5.9
			c0,1.1-0.1,2.1-0.2,3c-0.1,0.9-0.2,1.6-0.3,2.2L726.5,958.1z M731.4,946.1c-1.3,0-2.4,0.4-3.4,1.2c-0.9,0.8-1.5,2.1-1.7,3.8h9.8
			c-0.1-1.4-0.5-2.6-1.3-3.6C734.1,946.6,732.9,946.1,731.4,946.1z"/>
		<path class="st4" d="M749.1,939.2c1.9-0.2,3.9-0.4,6-0.6c2.1-0.2,4-0.2,5.8-0.2c4.9,0,8.6,1,11.1,2.8c2.5,1.9,3.7,4.5,3.7,7.8
			c0,1.3-0.1,2.4-0.4,3.3c-0.3,0.9-0.6,1.7-1,2.4s-0.8,1.2-1.3,1.6c-0.5,0.4-0.8,0.7-1.1,1l6.9,13.4c-0.8,0.2-1.7,0.3-2.7,0.4
			c-1,0.1-2,0.1-2.9,0.1c-1.1,0-2.2-0.1-3.3-0.1c-1.1-0.1-1.9-0.2-2.6-0.4l-6.7-14.5l0.9-0.5c1.4-0.8,2.4-1.7,3-2.6
			c0.5-0.9,0.8-1.9,0.8-3s-0.3-1.9-0.9-2.6c-0.6-0.7-1.6-1-3-1c-0.8,0-1.4,0-1.8,0.1l-0.1,24.1c-1.1,0.2-2,0.3-2.9,0.4
			c-0.9,0.1-1.6,0.1-2.3,0.1s-1.5,0-2.3-0.1s-1.8-0.2-2.8-0.4L749.1,939.2z"/>
		<path class="st4" d="M788.7,958.4c0.4,1.7,1.2,2.9,2.3,3.6c1.1,0.7,2.6,1,4.4,1.1c1.2,0,2.5-0.1,4-0.4c1.5-0.3,2.9-0.7,4.4-1.3
			c0.6,1.1,1.1,2.3,1.5,3.8s0.7,3,0.7,4.6c-3.6,1.3-7.4,2-11.2,2c-2.9,0-5.5-0.4-7.6-1.3c-2.1-0.8-3.8-2-5.1-3.4
			c-1.3-1.5-2.3-3.2-2.9-5.2c-0.6-2-0.9-4.2-0.9-6.6c0-2.3,0.3-4.5,1-6.5s1.6-3.8,3-5.3c1.3-1.5,2.9-2.7,4.9-3.6
			c2-0.9,4.3-1.3,6.9-1.3c2.2,0,4.1,0.4,5.8,1.1c1.7,0.7,3.1,1.8,4.3,3c1.2,1.3,2.1,2.8,2.7,4.7c0.6,1.8,0.9,3.8,0.9,5.9
			c0,1.1-0.1,2.1-0.2,3c-0.1,0.9-0.2,1.6-0.3,2.2L788.7,958.4z M793.7,946.3c-1.3,0-2.4,0.4-3.4,1.2c-0.9,0.8-1.5,2.1-1.7,3.8h9.8
			c-0.1-1.4-0.5-2.6-1.3-3.6C796.4,946.8,795.2,946.3,793.7,946.3z"/>
	</g>
	<path class="st5" d="M571.6,663.2c135.5,0,261.7,15.2,358.6,42c-73.5-37-206.6-61.7-358.6-61.7S286.5,668.2,213,705.2
		C309.9,678.4,436.2,663.2,571.6,663.2z"/>
	<path class="st6" d="M571.6,710.9c179.2,0,341.3,17.4,457.6,45.6C936.1,709,766,677.2,571.6,677.2S207.1,709,114,756.5
		C230.3,728.3,392.4,710.9,571.6,710.9z"/>
	<path class="st6" d="M370.8,474.9c-22.9,0.6-45.2-0.2-66.5-2.4v185.9c59.9-14.9,131.8-24.5,209.2-27.7
		c-20.7-37.2-66.9-109.2-78.6-126.4c-12.8-18.8-13.5-15.1-23.6-21.5c-10.1-6.3-25.5-4.6-40.7-22.5c-15.3-17.9-38.9-67.4-63.3-114.6
		s-18.8-39.1-14.8-32.9c3.9,6.2,72.8,116.1,77.4,121.3c4.6,5.3,12-1.6,9.6-6.7c-2.3-5.1-4.4-9-18-33.8s-54-96.6-52.6-97.1
		s76.5,119.5,80.3,125.1c3.4,5.1,6.2,2.1,7.1,1.5l0.1-0.1c0.8-0.6,4.5-2.1,1.4-7.3c-3.5-5.8-80.1-124.8-79.1-125.9
		c1-1.1,48.6,65.6,65.2,88.4s19.3,26.3,22.8,30.5s12.5-0.2,9.6-6.7c-2.8-6.5-72.9-115.5-76.8-121.7c-3.9-6.2-8.9-14.7,23.3,27.1
		s66.6,83.8,76.5,105.5c9.9,21.7,2.3,35.8,4,48s-1.8,11.5,9.8,31.1c11.6,19.6,64.9,104.2,87.2,133.2c0.9,1.2,1.9,2.5,2.9,3.7
		c2.2-43.4,3.8-98.7,4.3-118.6c0.7-28.6,8.2-64.9-12.6-78s-48.2-41.7-40.1-99.6c8.2-57.9,35.1-83.4,44.6-92.5
		c7.9-7.6,16.3-7.9,18.9-7.8c2.6-0.1,10.9,0.2,18.8,7.8c9.5,9.1,36.5,34.6,44.6,92.5c8.2,57.9-19.3,86.5-40.1,99.6
		s-13.4,49.4-12.6,78c0.5,19.9,2.1,75,4.3,118.3c23.7-33.1,30.2-41.7,36.1-51.7c7.7-13.1,21.7-47.1,29.4-64.4
		c7.7-17.3,38.7-72.6,67.6-116.9c28.8-44.3,52.3-71.5,68.9-83c0,0,19.9-11.6,27.9-11.2s18.6,3.9,9.5,20.3
		C803.6,337.6,693,523.8,686,534.1s-27.1,37.4-37.7,51.7c-8,10.9-13.8,17.7-28.3,44.5c74.5,2.6,144.2,11,203.4,24.4V419.5
		c88-20.7,151-76.7,151-142.4c0-83.4-101.4-151-226.6-151c-100.2,0-185.1,43.3-215.1,103.4c10.7-28.5,32.5-55.2,62.4-77.3
		c-44.4-13.6-95.3-21.4-149.4-21.4c-172,0-311.5,78.2-311.5,174.6C134.4,387.3,235,456,370.8,474.9z"/>
	<rect x="254" y="910" class="st7" width="652" height="74"/>
</g>
<text transform="matrix(1 0 0 1 202.9984 928)" class="st5 st8 st9">Just cook, we take care of the REST.</text>
<text transform="matrix(1 0 0 1 170.7158 860.0068)" class="st5 st10 st11">Easy</text>
<text transform="matrix(1 0 0 1 406.9158 860.0068)" class="st10 st11"> </text>
<text transform="matrix(1 0 0 1 438.8158 860.0068)" class="st6 st10 st11">Restaurant</text>
</svg>
